<svg xmlns="http://www.w3.org/2000/svg" xmlns:xlink="http://www.w3.org/1999/xlink" fill="none" version="1.1" width="18" height="18" viewBox="0 0 18 18"><g><g><ellipse cx="9" cy="9" rx="8" ry="8" fill="#FFFFFF" fill-opacity="1"/><path d="M18,9Q18,9.22094,17.9892,9.44161Q17.9783,9.66228,17.9567,9.88215Q17.935,10.10203,17.9026,10.32057Q17.8702,10.53912,17.8271,10.75581Q17.784,10.9725,17.7303,11.1868Q17.6766,11.4011,17.6125,11.6126Q17.5483,11.824,17.4739,12.032Q17.3995,12.24,17.3149,12.4441Q17.2304,12.6483,17.1359,12.848Q17.0414,13.0477,16.9373,13.2426Q16.8331,13.4374,16.7196,13.6269Q16.606,13.8164,16.4832,14.0001Q16.360500000000002,14.1838,16.2289,14.3613Q16.0973,14.5388,15.9571,14.7095Q15.8169,14.8803,15.6686,15.044Q15.5202,15.2077,15.364,15.364Q15.2077,15.5202,15.044,15.6686Q14.8803,15.8169,14.7095,15.9571Q14.5388,16.0973,14.3613,16.2289Q14.1838,16.360500000000002,14.0001,16.4832Q13.8164,16.606,13.6269,16.7196Q13.4374,16.8331,13.2426,16.9373Q13.0477,17.0414,12.848,17.1359Q12.6483,17.2304,12.4441,17.3149Q12.24,17.3995,12.032,17.4739Q11.824,17.5483,11.6126,17.6125Q11.4011,17.6766,11.1868,17.7303Q10.9725,17.784,10.75581,17.8271Q10.53912,17.8702,10.32057,17.9026Q10.10203,17.935,9.88215,17.9567Q9.66228,17.9783,9.44161,17.9892Q9.22094,18,9,18Q8.779060000000001,18,8.55839,17.9892Q8.337720000000001,17.9783,8.11785,17.9567Q7.89797,17.935,7.67943,17.9026Q7.46088,17.8702,7.24419,17.8271Q7.02749,17.784,6.81318,17.7303Q6.59886,17.6766,6.38744,17.6125Q6.17601,17.5483,5.96799,17.4739Q5.75997,17.3995,5.55585,17.3149Q5.35173,17.2304,5.152,17.1359Q4.95228,17.0414,4.757429999999999,16.9373Q4.5625800000000005,16.8331,4.37307,16.7196Q4.18357,16.606,3.99987,16.4832Q3.81616,16.360500000000002,3.63871,16.2289Q3.46125,16.0973,3.29046,15.9571Q3.11967,15.8169,2.9559699999999998,15.6686Q2.7922700000000003,15.5202,2.63604,15.364Q2.47981,15.2077,2.3314399999999997,15.044Q2.18307,14.8803,2.04291,14.7095Q1.902745,14.5388,1.7711320000000002,14.3613Q1.63952,14.1838,1.5167730000000001,14.0001Q1.394027,13.8164,1.280443,13.6269Q1.166858,13.4374,1.0627086000000001,13.2426Q0.9585593,13.0477,0.864096,12.848Q0.769633,12.6483,0.685084,12.4441Q0.600535,12.24,0.526103,12.032Q0.45167199999999996,11.824,0.387537,11.6126Q0.32340199999999997,11.4011,0.26971900000000004,11.1868Q0.21603499999999998,10.9725,0.172933,10.75581Q0.12983,10.53912,0.09741200000000005,10.32057Q0.06499299999999997,10.10203,0.04333699999999996,9.88215Q0.02168199999999998,9.66228,0.01084099999999999,9.44161Q0,9.22094,0,9Q0,8.779060000000001,0.01084099999999999,8.55839Q0.02168199999999998,8.337720000000001,0.04333699999999996,8.11785Q0.06499299999999997,7.89797,0.09741200000000005,7.67943Q0.12983,7.46088,0.172933,7.24419Q0.21603499999999998,7.02749,0.26971900000000004,6.81318Q0.32340199999999997,6.59886,0.387537,6.38744Q0.45167199999999996,6.17601,0.526103,5.96799Q0.600535,5.75997,0.685084,5.55585Q0.769633,5.35173,0.864096,5.152Q0.9585594,4.95228,1.0627086000000001,4.757429999999999Q1.166858,4.5625800000000005,1.280443,4.37307Q1.394027,4.18357,1.5167730000000001,3.99987Q1.63952,3.81616,1.7711320000000002,3.63871Q1.902745,3.46125,2.04291,3.29046Q2.18307,3.11967,2.3314399999999997,2.9559699999999998Q2.47981,2.7922700000000003,2.63604,2.63604Q2.7922700000000003,2.47981,2.9559699999999998,2.3314399999999997Q3.11967,2.18307,3.29046,2.04291Q3.46125,1.902745,3.63871,1.7711320000000002Q3.81616,1.63952,3.99987,1.5167730000000001Q4.18357,1.394027,4.37307,1.280443Q4.5625800000000005,1.166858,4.757429999999999,1.0627086000000001Q4.95228,0.9585593,5.152,0.864096Q5.35173,0.769633,5.55585,0.685084Q5.75997,0.600535,5.96799,0.526103Q6.17601,0.45167199999999996,6.38744,0.387537Q6.59886,0.32340199999999997,6.81318,0.26971900000000004Q7.02749,0.21603499999999998,7.24419,0.172933Q7.46088,0.12983,7.67942,0.09741200000000005Q7.89797,0.06499299999999997,8.11785,0.04333699999999996Q8.337720000000001,0.02168199999999998,8.55839,0.01084099999999999Q8.779060000000001,0,9,0Q9.22094,0,9.44161,0.01084099999999999Q9.66228,0.02168199999999998,9.88215,0.04333699999999996Q10.10203,0.06499299999999997,10.32057,0.09741200000000005Q10.53912,0.12983,10.75581,0.172933Q10.9725,0.21603499999999998,11.1868,0.26971900000000004Q11.4011,0.32340199999999997,11.6126,0.387537Q11.824,0.45167199999999996,12.032,0.526103Q12.24,0.600535,12.4441,0.685084Q12.6483,0.769633,12.848,0.864096Q13.0477,0.9585594,13.2426,1.0627086000000001Q13.4374,1.166858,13.6269,1.280443Q13.8164,1.394027,14.0001,1.5167730000000001Q14.1838,1.63952,14.3613,1.7711320000000002Q14.5388,1.902745,14.7095,2.04291Q14.8803,2.18307,15.044,2.3314399999999997Q15.2077,2.47981,15.364,2.63604Q15.5202,2.7922700000000003,15.6686,2.9559699999999998Q15.8169,3.11967,15.9571,3.29046Q16.0973,3.46125,16.2289,3.63871Q16.360500000000002,3.81616,16.4832,3.99987Q16.606,4.18357,16.7196,4.37307Q16.8331,4.5625800000000005,16.9373,4.757429999999999Q17.0414,4.95228,17.1359,5.152Q17.2304,5.35173,17.3149,5.55585Q17.3995,5.75997,17.4739,5.96799Q17.5483,6.17601,17.6125,6.38744Q17.6766,6.59886,17.7303,6.81318Q17.784,7.02749,17.8271,7.24419Q17.8702,7.46088,17.9026,7.67942Q17.935,7.89797,17.9567,8.11785Q17.9783,8.337720000000001,17.9892,8.55839Q18,8.779060000000001,18,9ZM17,9Q17,8.803609999999999,16.9904,8.60746Q16.9807,8.41131,16.9615,8.21586Q16.9422,8.02042,16.9134,7.82616Q16.8846,7.63189,16.8463,7.43928Q16.808,7.24666,16.760199999999998,7.05616Q16.7125,6.86565,16.6555,6.67772Q16.5985,6.48979,16.532400000000003,6.30488Q16.4662,6.11997,16.391,5.93853Q16.3159,5.75709,16.2319,5.57956Q16.1479,5.40203,16.0554,5.22883Q15.9628,5.05563,15.8618,4.88718Q15.7609,4.71873,15.6518,4.55544Q15.5426,4.39215,15.4257,4.2344100000000005Q15.3087,4.07666,15.1841,3.92485Q15.0595,3.77304,14.9276,3.62753Q14.7957,3.48201,14.6569,3.34315Q14.518,3.20428,14.3725,3.07239Q14.227,2.9405,14.0751,2.81592Q13.9233,2.69133,13.7656,2.5743400000000003Q13.6079,2.45735,13.4446,2.34824Q13.2813,2.23914,13.1128,2.1381699999999997Q12.9444,2.03721,12.7712,1.94463Q12.598,1.852053,12.4204,1.768086Q12.2429,1.684118,12.0615,1.6089639999999998Q11.88,1.533809,11.6951,1.467647Q11.5102,1.401486,11.3223,1.344477Q11.1343,1.287469,10.94384,1.23975Q10.75334,1.192031,10.56072,1.153718Q10.36811,1.115404,10.17384,1.0865879Q9.97958,1.0577717,9.78414,1.0385222Q9.58869,1.0192727,9.39254,1.00963635Q9.19639,1,9,1Q8.803609999999999,1,8.60746,1.00963635Q8.41131,1.0192727,8.21586,1.0385222Q8.02042,1.0577717,7.82616,1.0865879Q7.63189,1.115404,7.43928,1.153718Q7.24666,1.192031,7.05616,1.23975Q6.86565,1.287469,6.67772,1.344477Q6.48979,1.401486,6.30488,1.467647Q6.11997,1.533809,5.93853,1.6089639999999998Q5.75709,1.684118,5.57956,1.768086Q5.40203,1.852053,5.22883,1.94463Q5.05563,2.03721,4.88718,2.1381699999999997Q4.71873,2.23914,4.55544,2.34824Q4.39215,2.45735,4.2344100000000005,2.5743400000000003Q4.07666,2.69133,3.92485,2.81592Q3.77304,2.9405,3.62753,3.07239Q3.48201,3.20428,3.34315,3.34315Q3.20428,3.48201,3.07239,3.62753Q2.9405,3.77304,2.81592,3.92485Q2.69133,4.07666,2.5743400000000003,4.2344100000000005Q2.45735,4.39215,2.34824,4.55544Q2.23914,4.71873,2.1381699999999997,4.88718Q2.03721,5.05563,1.94463,5.22883Q1.852053,5.40203,1.768086,5.57956Q1.684118,5.75709,1.6089639999999998,5.93853Q1.533809,6.11997,1.467647,6.30488Q1.401486,6.48979,1.344477,6.67772Q1.287469,6.86565,1.23975,7.05616Q1.192031,7.24666,1.153718,7.43928Q1.115404,7.63189,1.0865879,7.82616Q1.0577717,8.02042,1.0385222,8.21586Q1.0192727,8.41131,1.00963635,8.60746Q1,8.803609999999999,1,9Q1,9.19639,1.00963635,9.39254Q1.0192727,9.58869,1.0385222,9.78414Q1.0577717,9.97958,1.0865879,10.17384Q1.115404,10.36811,1.153718,10.56072Q1.192031,10.75334,1.23975,10.94384Q1.287469,11.1343,1.344477,11.3223Q1.401486,11.5102,1.467647,11.6951Q1.533809,11.88,1.6089639999999998,12.0615Q1.684118,12.2429,1.768086,12.4204Q1.852053,12.598,1.94463,12.7712Q2.03721,12.9444,2.1381699999999997,13.1128Q2.23914,13.2813,2.34824,13.4446Q2.45735,13.6079,2.5743400000000003,13.7656Q2.69133,13.9233,2.81592,14.0751Q2.9405,14.227,3.07239,14.3725Q3.20428,14.518,3.34315,14.6569Q3.48201,14.7957,3.62753,14.9276Q3.77304,15.0595,3.92485,15.1841Q4.07666,15.3087,4.2344100000000005,15.4257Q4.39215,15.5426,4.55544,15.6518Q4.71873,15.7609,4.88718,15.8618Q5.05563,15.9628,5.22883,16.0554Q5.40203,16.1479,5.57956,16.2319Q5.75709,16.3159,5.93853,16.391Q6.11997,16.4662,6.30488,16.532400000000003Q6.48979,16.5985,6.67772,16.6555Q6.86565,16.7125,7.05616,16.760199999999998Q7.24666,16.808,7.43928,16.8463Q7.63189,16.8846,7.82616,16.9134Q8.02042,16.9422,8.21586,16.9615Q8.41131,16.9807,8.60746,16.9904Q8.803609999999999,17,9,17Q9.19639,17,9.39254,16.9904Q9.58869,16.9807,9.78414,16.9615Q9.97958,16.9422,10.17384,16.9134Q10.36811,16.8846,10.56072,16.8463Q10.75334,16.808,10.94384,16.760199999999998Q11.1343,16.7125,11.3223,16.6555Q11.5102,16.5985,11.6951,16.532400000000003Q11.88,16.4662,12.0615,16.391Q12.2429,16.3159,12.4204,16.2319Q12.598,16.1479,12.7712,16.0554Q12.9444,15.9628,13.1128,15.8618Q13.2813,15.7609,13.4446,15.6518Q13.6079,15.5426,13.7656,15.4257Q13.9233,15.3087,14.0751,15.1841Q14.227,15.0595,14.3725,14.9276Q14.518,14.7957,14.6569,14.6569Q14.7957,14.518,14.9276,14.3725Q15.0595,14.227,15.1841,14.0751Q15.3087,13.9233,15.4257,13.7656Q15.5426,13.6079,15.6518,13.4446Q15.7609,13.2813,15.8618,13.1128Q15.9628,12.9444,16.0554,12.7712Q16.1479,12.598,16.2319,12.4204Q16.3159,12.2429,16.391,12.0615Q16.4662,11.88,16.532400000000003,11.6951Q16.5985,11.5102,16.6555,11.3223Q16.7125,11.1343,16.760199999999998,10.94384Q16.808,10.75334,16.8463,10.56072Q16.8846,10.36811,16.9134,10.17384Q16.9422,9.97958,16.9615,9.78414Q16.9807,9.58869,16.9904,9.39254Q17,9.19639,17,9Z" fill="#FFFFFF" fill-opacity="1"/></g><g><path d="M17,9C17,13.4178,13.4178,17,9,17C4.5822199999999995,17,1,13.4178,1,9C1,4.5822199999999995,4.5822199999999995,1,8.99998,1C13.4177,1,17,4.58221,17,9ZM7.16059,13.5589C5.24566,12.858,3.8755,11.0167,3.8755,8.86178C3.8755,6.70685,5.24566,4.8668499999999995,7.16059,4.16463C7.27996,4.121449999999999,7.3752,3.9767,7.3752,3.8497L7.3752,3.38368C7.3752,3.19447,7.2279,3.0878,7.04758,3.14494C4.62725,3.91954,2.87487,6.18623,2.87487,8.86304C2.87487,11.5399,4.62725,13.8065,7.04758,14.5799C7.2279,14.637,7.3752,14.5303,7.3752,14.3411L7.3752,13.8751C7.3752,13.7469,7.27996,13.6034,7.16059,13.5589ZM10.70345,3.14622C10.52313,3.08908,10.37583,3.19575,10.37583,3.38495L10.37583,3.85098C10.37583,3.97796,10.47107,4.12273,10.59044,4.16591C12.5054,4.8668499999999995,13.8755,6.70813,13.8755,8.86304C13.8755,11.018,12.5054,12.858,10.59044,13.5602C10.45965,13.6084,10.37583,13.7367,10.37583,13.8751L10.37583,14.3411C10.37583,14.5303,10.52314,14.637,10.70345,14.5799C13.1238,13.8065,14.8761,11.5399,14.8761,8.86304C14.8761,6.18623,13.1225,3.91954,10.70345,3.14622ZM11.068,10.05198C11.068,8.88373,10.35688,8.490079999999999,8.98291,8.302150000000001C7.96959,8.15484,7.77276,7.91738,7.77276,7.44373C7.77276,6.9942,8.11562,6.67548,8.77847,6.67548C9.37784,6.67548,9.72196,6.885,9.86419,7.36628C9.89593,7.4742,9.99245,7.55039,10.10419,7.55039L10.62991,7.55039C10.77594,7.55039,10.89021,7.41579,10.85974,7.2723C10.6934,6.5104,10.18038,6.05326,9.3753,5.90976L9.3753,5.11357C9.37548,4.97534,9.26338,4.863239999999999,9.12514,4.86342L8.62483,4.86342C8.48659,4.863239999999999,8.37449,4.97534,8.37467,5.11357L8.37467,5.88818C7.38292,6.02913,6.74293,6.68818,6.74293,7.53516C6.74293,8.631029999999999,7.40451,9.05516,8.80261,9.24311C9.75118,9.39802,10.02037,9.60247,10.02037,10.14215C10.02037,10.68183,9.56197,11.0412,8.91689,11.0412C8.044509999999999,11.0412,7.75624,10.65898,7.65085,10.165C7.62545,10.04819,7.52514,9.96183,7.40577,9.96183L6.83561,9.96183C6.69212,9.96183,6.5791,10.09136,6.60451,10.2323C6.74926,11.0641,7.28387,11.6749,8.37467,11.8234L8.37467,12.6133C8.37449,12.7515,8.48659,12.8636,8.62483,12.8634L9.12514,12.8634C9.26338,12.8636,9.37548,12.7515,9.3753,12.6133L9.3753,11.8234C10.40769,11.6596,11.068,10.94088,11.068,10.05198Z" fill="#1296DB" fill-opacity="1" style="mix-blend-mode:passthrough"/></g></g></svg>